<?xml version="1.0" encoding="UTF-8" standalone="no"?>
<!-- Created with Inkscape (http://www.inkscape.org/) -->

<svg
   width="193.00475mm"
   height="164.927mm"
   viewBox="0 0 193.00475 164.927"
   version="1.1"
   id="svg1"
   xml:space="preserve"
   inkscape:version="1.3.1 (91b66b0783, 2023-11-16)"
   sodipodi:docname="logo.svg"
   xmlns:inkscape="http://www.inkscape.org/namespaces/inkscape"
   xmlns:sodipodi="http://sodipodi.sourceforge.net/DTD/sodipodi-0.dtd"
   xmlns="http://www.w3.org/2000/svg"
   xmlns:svg="http://www.w3.org/2000/svg"><sodipodi:namedview
     id="namedview1"
     pagecolor="#ffffff"
     bordercolor="#666666"
     borderopacity="1.0"
     inkscape:showpageshadow="2"
     inkscape:pageopacity="0.0"
     inkscape:pagecheckerboard="0"
     inkscape:deskcolor="#d1d1d1"
     inkscape:document-units="mm"
     inkscape:zoom="0.40378396"
     inkscape:cx="-281.09091"
     inkscape:cy="266.23147"
     inkscape:window-width="1600"
     inkscape:window-height="837"
     inkscape:window-x="-8"
     inkscape:window-y="-8"
     inkscape:window-maximized="1"
     inkscape:current-layer="layer1" /><defs
     id="defs1" /><g
     inkscape:label="Слой 1"
     inkscape:groupmode="layer"
     id="layer1"
     transform="translate(-106.02035,-114.876)"><path
       style="fill:none;stroke:#000000;stroke-width:4.465;stroke-linecap:round;stroke-linejoin:miter;stroke-dasharray:none;stroke-opacity:1"
       d="m 133.96275,188.52086 -5.15464,-5.61798 c 0,0 -35.568437,41.16467 -9.08886,61.87147 2.72475,2.13073 5.88919,3.77321 10.85241,4.01942 l 0.0898,-11.04318"
       id="path1"
       sodipodi:nodetypes="ccscc" /><path
       style="fill:none;stroke:#000000;stroke-width:4.465;stroke-linecap:round;stroke-linejoin:miter;stroke-dasharray:none;stroke-opacity:1"
       d="m 146.86007,235.11535 c 0,0 -9.15583,13.96933 -16.44559,13.72361"
       id="path2"
       sodipodi:nodetypes="cc" /><path
       style="fill:none;stroke:#000000;stroke-width:4.40553;stroke-linecap:round;stroke-linejoin:round;stroke-dasharray:none;stroke-opacity:1"
       d="m 131.04055,248.27272 0.0412,11.16203 -16.07237,-0.0794"
       id="path3" /><path
       style="fill:none;stroke:#000000;stroke-width:4.465;stroke-linecap:round;stroke-linejoin:round;stroke-dasharray:none;stroke-opacity:1"
       d="m 130.89313,259.41166 18.35979,0.28959 -5.50214,15.98519 -23.16693,-0.23167"
       id="path4" /><path
       id="rect4"
       style="opacity:1;stroke-width:4.465;stroke-linecap:round;stroke-linejoin:round;paint-order:stroke fill markers"
       d="m 123.6245,264.45047 c -0.50909,-0.92774 14.76416,-0.64261 22.32713,-0.92667 v 2.02712 c -7.58658,-0.33698 -22.22843,-0.58429 -22.32713,-1.10045 z"
       sodipodi:nodetypes="cccc" /><path
       id="rect4-0"
       style="stroke-width:8.2421;stroke-linecap:round;stroke-linejoin:round;paint-order:stroke fill markers"
       d="m 249.18568,218.70271 c -0.98133,-1.63998 28.45966,-1.13596 43.0382,-1.63809 v 3.58336 c -14.62405,-0.59569 -42.84794,-1.03285 -43.0382,-1.94527 z"
       sodipodi:nodetypes="cccc" /><path
       id="rect4-0-0"
       style="stroke-width:8.2421;stroke-linecap:round;stroke-linejoin:round;paint-order:stroke fill markers"
       d="m 251.67287,225.25573 c -0.98133,-1.63998 28.45966,-1.13596 43.0382,-1.63809 v 3.58336 c -14.62405,-0.59569 -42.84794,-1.03285 -43.0382,-1.94527 z"
       sodipodi:nodetypes="cccc" /><path
       id="rect4-0-9"
       style="stroke-width:8.2421;stroke-linecap:round;stroke-linejoin:round;paint-order:stroke fill markers"
       d="m 251.5026,232.00933 c -0.98133,-1.63998 28.45966,-1.13596 43.0382,-1.63809 v 3.58336 c -14.62405,-0.59569 -42.84794,-1.03285 -43.0382,-1.94527 z"
       sodipodi:nodetypes="cccc" /><path
       id="rect4-9"
       style="stroke-width:3.97251;stroke-linecap:round;stroke-linejoin:round;paint-order:stroke fill markers"
       d="m 125.59575,270.08142 c -0.45498,-0.82171 13.19478,-0.56917 19.95383,-0.82077 v 1.79546 c -6.78015,-0.29847 -19.86562,-0.51752 -19.95383,-0.97469 z"
       sodipodi:nodetypes="cccc" /><path
       style="fill:none;stroke:#000000;stroke-width:4.465;stroke-linecap:round;stroke-linejoin:round;stroke-dasharray:none;stroke-opacity:1"
       d="m 157.54899,275.45477 10.12671,-35.70874 c 0,0 -19.1757,0.61083 -24.04075,-25.22029"
       id="path5"
       sodipodi:nodetypes="ccc" /><path
       style="fill:none;stroke:#000000;stroke-width:4.465;stroke-linecap:round;stroke-linejoin:round;stroke-dasharray:none;stroke-opacity:1"
       d="m 143.63495,214.17823 -13.32099,-82.12675 c 0,0 -1.27418,-8.10842 11.00429,-10.77262 12.27847,-2.6642 41.35296,-4.17005 53.1681,0.11583 11.81513,4.28589 14.36349,34.28705 14.36349,34.28705 l 7.87676,50.27224"
       id="path6" /><path
       style="fill:none;stroke:#000000;stroke-width:4.465;stroke-linecap:round;stroke-linejoin:round;stroke-dasharray:none;stroke-opacity:1"
       d="m 175.72114,142.93993 0.92667,6.31299"
       id="path7" /><path
       style="fill:none;stroke:#000000;stroke-width:4.465;stroke-linecap:round;stroke-linejoin:round;stroke-dasharray:none;stroke-opacity:1"
       d="m 191.59223,143.32252 0.92667,6.31299"
       id="path7-0" /><path
       style="fill:none;stroke:#000000;stroke-width:4.465;stroke-linecap:round;stroke-linejoin:round;stroke-dasharray:none;stroke-opacity:1"
       d="m 196.02842,171.9786 0.92667,6.31299"
       id="path7-1" /><path
       style="fill:none;stroke:#000000;stroke-width:4.465;stroke-linecap:round;stroke-linejoin:round;stroke-dasharray:none;stroke-opacity:1"
       d="m 180.18817,172.145 0.92667,6.31299"
       id="path7-9" /><path
       style="fill:none;stroke:#000000;stroke-width:4.465;stroke-linecap:round;stroke-linejoin:round;stroke-dasharray:none;stroke-opacity:1"
       d="m 151.68545,129.15561 13.07483,74.09073 c 0,0 1.57825,10.06313 15.53633,9.54188 l 42.57357,-0.0746 c 0,0 12.44994,2.70295 12.77757,13.92427 0.31316,10.72561 -1.88387,15.15288 -9.8289,15.15288 -7.94502,0 -57.00759,-1.96578 -57.00759,-1.96578"
       id="path8"
       sodipodi:nodetypes="ccccssc" /><path
       style="fill:none;stroke:#000000;stroke-width:4.465;stroke-linecap:round;stroke-linejoin:round;stroke-dasharray:none;stroke-opacity:1"
       d="m 215.25279,275.20905 10.07462,-33.33634"
       id="path9" /><path
       style="fill:none;stroke:#000000;stroke-width:4.465;stroke-linecap:round;stroke-linejoin:round;stroke-dasharray:none;stroke-opacity:1"
       d="M 226.3922,274.7995 216.15377,241.7908"
       id="path10" /><path
       style="fill:none;stroke:#000000;stroke-width:4.465;stroke-linecap:round;stroke-linejoin:round;stroke-dasharray:none;stroke-opacity:1"
       d="m 229.81591,241.28353 44.01715,10e-6 10.01972,33.53414"
       id="path11"
       sodipodi:nodetypes="ccc" /><path
       style="fill:none;stroke:#000000;stroke-width:4.465;stroke-linecap:round;stroke-linejoin:round;stroke-dasharray:none;stroke-opacity:1"
       d="m 273.83306,241.28354 14.34654,-0.73888 c 0,0 7.4883,-1.5199 6.67746,-12.69794 -0.81084,-11.17804 -9.72603,-16.3987 -16.5006,-16.08114 -7.53752,0.35333 -55.41355,0.91092 -55.41355,0.91092"
       id="path12"
       sodipodi:nodetypes="ccssc" /><path
       style="fill:none;stroke:#000000;stroke-width:4.465;stroke-linecap:round;stroke-linejoin:round;stroke-dasharray:none;stroke-opacity:1"
       d="m 251.86542,205.26008 0.16381,-37.43171 -19.8216,-0.24572 7.04404,-36.77645 25.2275,-0.16381 6.79833,36.77645 -19.51446,0.38905"
       id="path13"
       sodipodi:nodetypes="ccccccc" /><path
       style="fill:none;stroke:#000000;stroke-width:4.465;stroke-linecap:round;stroke-linejoin:round;stroke-dasharray:none;stroke-opacity:1"
       d="m 212.95938,180.68784 63.23254,-0.16381 c 0,0 8.41378,5.79598 2.33246,15.35233 -6.08134,9.55636 0.57918,15.57976 0.57918,15.57976"
       id="path14" /></g></svg>
