<svg width="27" height="26" viewBox="0 0 27 26" fill="none" xmlns="http://www.w3.org/2000/svg">
<g clip-path="url(#clip0_1_275)">
<g clip-path="url(#clip1_1_275)">
<path d="M25.9522 14.8445L12.8472 1.73948C12.414 1.30625 11.8183 1.08964 11.2226 1.19795L7.70266 1.84778C7.48605 1.90194 7.32359 2.06439 7.37774 2.28101C7.4319 2.49762 7.64851 2.66008 7.81097 2.60592L11.3309 1.95609C11.6558 1.90194 11.9807 2.01024 12.1973 2.22685L23.7861 13.8156L14.3093 23.2924L13.497 22.5342C14.0385 21.5595 14.3093 20.4764 14.3093 19.3392C14.3093 15.6568 11.3309 12.6242 7.59436 12.6242C7.59436 12.6242 5.31993 12.9491 4.39933 13.4365L2.72059 11.7578C2.50398 11.5412 2.39567 11.2162 2.44982 10.8913L3.26212 6.45078C3.91195 6.93816 4.56179 7.31723 5.21163 7.53384C5.5907 7.64215 5.96977 7.6963 6.29468 7.6963C6.83621 7.6963 7.32359 7.53384 7.64851 7.20893C7.81097 7.04647 7.91927 6.88401 7.97343 6.6674C8.08173 6.45078 7.97343 6.23417 7.75681 6.12587C7.5402 6.01756 7.32359 6.12587 7.21528 6.34248C7.16113 6.45078 7.10698 6.55909 7.05283 6.61324C6.45714 7.15477 4.88671 6.82985 3.37042 5.53018L3.64119 4.0139C3.69534 3.58068 4.02026 3.25576 4.45348 3.20161C4.72425 3.20161 4.88671 2.98499 4.83255 2.76838C4.83255 2.55177 4.61594 2.38931 4.39933 2.44347C3.64119 2.55177 3.04551 3.14745 2.9372 3.9056L2.77474 4.88035C1.36677 3.30991 0.987695 1.63117 1.58338 1.08964C1.90829 0.764724 2.50398 0.710571 3.20797 0.981336C4.02026 1.2521 4.88671 1.79363 5.699 2.55177C6.13223 2.98499 6.5113 3.47237 6.78206 3.95975C6.89037 4.12221 7.16113 4.23051 7.32359 4.06805C7.48605 3.95975 7.59436 3.68898 7.4319 3.52652C7.10698 2.985 6.67376 2.49762 6.24053 2.01024C5.37408 1.08964 4.34518 0.493959 3.42458 0.169041C2.39567 -0.155876 1.52922 0.00658256 0.987695 0.493959C0.446166 1.03549 0.337859 1.90194 0.662777 2.93084C0.987695 3.85144 1.58338 4.88035 2.44982 5.69264C2.50398 5.7468 2.55813 5.7468 2.55813 5.80095L1.69168 10.7289C1.58338 11.3245 1.79999 11.9202 2.17906 12.2993L3.74949 13.8697C2.07075 15.0611 0.933542 17.0648 0.933542 19.285C0.933542 23.0216 3.96611 26 7.64851 26C9.86878 26 11.8724 24.9169 13.0638 23.184L15.3382 25.4585C15.6631 25.7834 16.1505 26 16.5837 26C17.017 26 17.5043 25.8375 17.8293 25.4585L25.9522 17.3897C26.6562 16.6857 26.6562 15.5485 25.9522 14.8445ZM7.64851 25.1877C4.39933 25.1877 1.74584 22.5342 1.74584 19.285C1.74584 16.0359 4.39933 13.3824 7.64851 13.3824C10.8977 13.3824 13.5512 16.0359 13.5512 19.285C13.5512 22.5884 10.8977 25.1877 7.64851 25.1877ZM25.4107 16.8482L17.3419 24.9169C16.9628 25.296 16.313 25.296 15.9339 24.9169L14.905 23.888L24.3818 14.4113L25.4107 15.4402C25.7897 15.8192 25.7897 16.4691 25.4107 16.8482Z" fill="#1A171B"/>
<path d="M6.89101 8.12956C6.6744 8.07541 6.45779 8.18371 6.40364 8.40033C6.34948 8.61694 6.45779 8.83355 6.6744 8.8877C6.89101 8.94185 7.10762 8.99601 7.27008 8.99601C7.86577 8.99601 8.4073 8.7794 8.84052 8.34617C9.70697 7.47972 9.70697 6.1259 8.84052 5.25945C7.97407 4.39301 6.62025 4.39301 5.7538 5.25945C5.64549 5.36776 5.59134 5.42191 5.48304 5.53022C5.37473 5.69268 5.37473 5.96344 5.59134 6.07175C5.7538 6.18005 6.02457 6.18005 6.13287 5.96344C6.18702 5.90929 6.24118 5.85514 6.29533 5.80098C6.83686 5.25945 7.70331 5.25945 8.29899 5.80098C8.84052 6.34251 8.84052 7.26311 8.29899 7.80464C7.91992 8.12956 7.37839 8.29202 6.89101 8.12956Z" fill="#1A171B"/>
</g>
</g>
<defs>
<clipPath id="clip0_1_275">
<rect width="26" height="26" fill="white" transform="translate(0.480011)"/>
</clipPath>
<clipPath id="clip1_1_275">
<rect width="26" height="26" fill="white" transform="translate(0.480011)"/>
</clipPath>
</defs>
</svg>
